PathFileType	4	(x/y/z)	S09_M20_T18
DataRate	CameraRate	NumFrames	NumMarkers	Units	OrigDataRate	OrigDataStartFrame	OrigNumFrames
240	240	5	51	mm	240	1	558
Frame#	Time	Sternum			R.Acromium			L.Acromium			Top.Head			R.ASIS			L.ASIS			R.PSIS			L.PSIS			R.Great.Tro			L.Great.Tro			R.Iliac.Crest			L.Iliac.Crest			V.Sacral			R.Thigh.Upper.Post			R.Thigh.Lower.Ant			R.Thigh.Lower.Post			R.Thigh.Upper.Ant			R.Knee.Lat			R.Knee.Med			R.Shank.Upper.Post			R.Shank.Lower.Ant			R.Shank.Lower.Post			R.Shank.Upper.Ant			R.Ankle.Lat			R.Ankle.Med			R.Heel.Upper			R.Heel.Med			R.Heel.Lat			R.Toe.Lat			R.Toe.Med			R.Toe.Tip			L.Thigh.Upper.Post			L.Thigh.Lower.Ant			L.Thigh.Lower.Post			L.Thigh.Upper.Ant			L.Knee.Lat			L.Knee.Med			L.Shank.Upper.Post			L.Shank.Lower.Ant			L.Shank.Lower.Post			L.Shank.Upper.Ant			L.Ankle.Lat			L.Ankle.Med			L.Heel.Upper			L.Heel.Med			L.Heel.Lat			L.Toe.Lat			L.Toe.Med			L.Toe.Tip			Cervical.Spine			Back			
		X1	Y1	Z1	X2	Y2	Z2	X3	Y3	Z3	X4	Y4	Z4	X5	Y5	Z5	X6	Y6	Z6	X7	Y7	Z7	X8	Y8	Z8	X9	Y9	Z9	X10	Y10	Z10	X11	Y11	Z11	X12	Y12	Z12	X13	Y13	Z13	X14	Y14	Z14	X15	Y15	Z15	X16	Y16	Z16	X17	Y17	Z17	X18	Y18	Z18	X19	Y19	Z19	X20	Y20	Z20	X21	Y21	Z21	X22	Y22	Z22	X23	Y23	Z23	X24	Y24	Z24	X25	Y25	Z25	X26	Y26	Z26	X27	Y27	Z27	X28	Y28	Z28	X29	Y29	Z29	X30	Y30	Z30	X31	Y31	Z31	X32	Y32	Z32	X33	Y33	Z33	X34	Y34	Z34	X35	Y35	Z35	X36	Y36	Z36	X37	Y37	Z37	X38	Y38	Z38	X39	Y39	Z39	X40	Y40	Z40	X41	Y41	Z41	X42	Y42	Z42	X43	Y43	Z43	X44	Y44	Z44	X45	Y45	Z45	X46	Y46	Z46	X47	Y47	Z47	X48	Y48	Z48	X49	Y49	Z49	X50	Y50	Z50	X51	Y51	Z51	

1	0	NaN	NaN	NaN	-1055.4	1408.5	418.06	-1060.4	1403	108.01	-1043.3	1704.6	258	-979.43	987.73	389.82	-947.43	984.49	143.15	-1192	1029.2	279.94	-1174	1019.7	191.92	-1083	915.34	451.62	-1013.4	893.48	65.215	-1072	1074.8	425.16	-1053.6	1077.8	92.397	-1203.5	990.64	231	-1172.4	680.75	410.26	-1137.6	562.51	371.27	-1207.3	598.75	378.16	-1110.5	644.33	402.37	-1189.3	501.71	356.71	-1191.5	500.32	234.25	NaN	NaN	NaN	-1264.4	283.32	333.26	-1342.4	289.37	333.31	-1252.6	351.24	351.5	-1376.1	97.576	300.86	-1343.1	115.39	212.74	-1438.9	85.768	246.35	-1427.3	53.005	218.54	-1440	56.632	282.33	-1279.9	40.23	340.03	-1227.9	44.785	233.36	-1181.4	53.801	281.79	-988.32	626.72	116.92	-881.53	570.15	103.51	-938.43	552.77	134.73	-925.94	639.47	81.276	-852.04	499.24	118.31	-823.09	522.96	254.06	-816.55	362.32	116.89	-711.62	327.11	112.72	-769.76	300.78	122.08	-757.84	389.2	107.74	-624.53	152.48	134.08	-589.98	173.33	220.14	-639.72	81.987	200.62	-608.23	75.049	227.04	-627.54	57.662	169.93	-507.49	158.95	78.636	-461.66	199.19	176.09	-452.5	238.94	110.45	-1133.9	1452.7	271.99	-1186.5	1185.4	257.18
2	0.0041667	NaN	NaN	NaN	-1050.4	1407.6	417.65	-1055.2	1402	107.58	-1038.5	1703.6	257.56	-974.69	986.59	389.85	-941.98	983.65	143.24	-1186.5	1028.2	279.46	-1168.1	1018.7	191.57	-1078.7	914.4	451.31	-1007.8	892.8	65.05	-1067.2	1073.8	424.94	-1048.1	1077	92.292	-1198.1	989.74	230.42	-1168.9	680.23	409.7	-1134.3	561.8	371.09	-1203.9	598.27	377.56	-1107.1	643.57	402.22	-1186.2	501.13	356.24	-1187.8	499.53	233.9	NaN	NaN	NaN	-1263.3	283.07	333.26	-1340.5	289.83	332.78	-1250.1	351.11	351.28	-1375.6	98.401	300.59	-1342.4	115.71	212.47	-1438.5	86.535	246.15	-1427	53.705	218.36	-1439.7	57.432	282.13	-1279.8	40.287	339.9	-1227.7	44.626	233.36	-1181.2	53.385	281.81	-981.74	626.19	116.56	-874.65	570.08	103.68	-931.65	552.42	134.52	-921.48	640.06	80.935	-845.02	499.25	118.55	-817.14	522.77	254.26	-809.89	362.22	116.78	-705.22	326.51	113.56	-763.41	300.48	122.1	-751.05	388.9	108.33	-619.15	151.48	134.83	-585.16	171.95	221.27	-634.76	80.54	201.03	-603.25	73.498	227.51	-622.3	56.46	170.26	-501.98	158.47	80.028	-456.72	198.2	177.89	-447.25	238.32	112.59	-1129.2	1451.8	271.54	-1181.2	1184.4	256.79
3	0.0083333	NaN	NaN	NaN	-1045.2	1406.7	417.21	-1049.8	1400.9	107.13	-1033.5	1702.5	257.1	-969.73	985.42	389.88	-936.28	982.79	143.34	-1180.8	1027.2	278.95	-1162	1017.6	191.2	-1074.3	913.42	450.97	-1001.9	892.11	64.875	-1062.2	1072.7	424.71	-1042.3	1076.1	92.182	-1192.5	988.81	229.83	-1165.2	679.69	409.12	-1130.8	561.06	370.89	-1200.4	597.79	376.93	-1103.5	642.78	402.05	-1182.9	500.51	355.73	-1183.9	498.71	233.54	-1299.9	369.27	365.94	-1262	282.83	333.24	-1338.5	290.33	332.24	-1247.6	350.98	351.05	-1375	99.298	300.3	-1341.7	116.05	212.2	-1438	87.362	245.95	-1426.7	54.464	218.17	-1439.4	58.292	281.93	-1279.7	40.347	339.76	-1227.5	44.464	233.37	-1180.9	52.956	281.84	-974.84	625.64	116.17	-867.4	570.01	103.87	-924.54	552.07	134.29	-916.6	640.63	80.623	-837.68	499.25	118.8	-810.92	522.57	254.47	-802.96	362.11	116.66	-698.56	325.86	114.43	-756.83	300.14	122.12	-743.99	388.57	108.95	-613.64	150.38	135.6	-580.25	170.45	222.41	-629.73	78.987	201.42	-598.21	71.829	227.97	-616.98	55.154	170.59	-496.33	157.89	81.479	-451.67	197.07	179.77	-441.86	237.56	114.82	-1124.3	1450.9	271.06	-1175.6	1183.3	256.4
4	0.0125	NaN	NaN	NaN	-1039.8	1405.8	416.74	-1044.2	1399.8	106.66	-1028.3	1701.5	256.61	-964.58	984.21	389.89	-930.36	981.91	143.42	-1174.9	1026.1	278.43	-1155.7	1016.5	190.8	-1069.7	912.4	450.62	-995.83	891.39	64.692	-1057.1	1071.5	424.48	-1036.4	1075.2	92.066	-1186.7	987.85	229.21	-1161.3	679.12	408.52	-1127.2	560.3	370.67	-1196.7	597.28	376.27	-1099.8	641.97	401.86	-1179.5	499.86	355.21	-1179.8	497.86	233.15	-1297.7	369.34	365.47	-1260.5	282.61	333.19	-1336.4	290.84	331.68	-1244.9	350.85	350.8	-1374.3	100.27	299.99	-1340.9	116.43	211.93	-1437.5	88.252	245.74	-1426.4	55.285	217.97	-1439	59.215	281.72	-1279.6	40.409	339.62	-1227.2	44.303	233.38	-1180.6	52.517	281.86	-967.64	625.09	115.75	-859.81	569.95	104.09	-917.15	551.72	134.05	-911.29	641.17	80.35	-830.05	499.27	119.06	-804.48	522.36	254.7	-795.82	362.01	116.52	-691.7	325.16	115.31	-750.08	299.79	122.12	-736.68	388.2	109.58	-608.07	149.18	136.38	-575.31	168.8	223.57	-624.68	77.332	201.79	-593.17	70.046	228.42	-611.64	53.745	170.9	-490.61	157.17	82.976	-446.57	195.78	181.72	-436.4	236.65	117.13	-1119.3	1450	270.56	-1169.8	1182.2	255.99
5	0.016667	NaN	NaN	NaN	-1034.3	1404.8	416.25	-1038.5	1398.7	106.18	-1023	1700.4	256.1	-959.25	982.98	389.9	-924.26	981.04	143.49	-1168.8	1025.1	277.88	-1149.2	1015.4	190.39	-1065	911.35	450.25	-989.55	890.68	64.5	-1051.7	1070.4	424.23	-1030.3	1074.3	91.944	-1180.7	986.85	228.59	-1157.3	678.54	407.91	-1123.4	559.51	370.44	-1192.8	596.77	375.59	-1095.9	641.14	401.67	-1175.9	499.2	354.67	-1175.6	496.99	232.76	-1295.3	369.43	364.96	-1259	282.42	333.12	-1334.2	291.38	331.11	-1242.1	350.74	350.53	-1373.6	101.32	299.67	-1340.1	116.84	211.66	-1436.9	89.206	245.53	-1426	56.171	217.77	-1438.6	60.203	281.5	-1279.4	40.475	339.47	-1227	44.144	233.39	-1180.3	52.071	281.9	-960.18	624.54	115.31	-851.9	569.9	104.34	-909.51	551.38	133.79	-905.54	641.66	80.126	-822.18	499.3	119.33	-797.84	522.14	254.94	-788.49	361.9	116.37	-684.68	324.41	116.2	-743.19	299.4	122.09	-729.19	387.79	110.24	-602.5	147.87	137.15	-570.39	167.01	224.72	-619.68	75.582	202.14	-588.19	68.153	228.86	-606.34	52.233	171.19	-484.88	156.32	84.51	-441.48	194.32	183.72	-430.92	235.58	119.5	-1114	1449	270.03	-1163.9	1181.1	255.58
